<?xml version="1.0" encoding="utf-8"?>
<!-- Generator: Adobe Illustrator 23.0.1, SVG Export Plug-In . SVG Version: 6.00 Build 0)  -->
<svg version="1.1" xmlns="http://www.w3.org/2000/svg" xmlns:xlink="http://www.w3.org/1999/xlink" x="0px" y="0px" width="21px"
	 height="24px" viewBox="0 0 21 24" style="enable-background:new 0 0 21 24;" xml:space="preserve">
<style type="text/css">
	.st0{fill:#FFFFFF;}
</style>
<path class="st0" d="M0.5,14.9l8.8,8.6c0.7,0.7,1.8,0.7,2.5,0l8.8-8.6c0.7-0.7,0.7-1.8,0-2.4c-0.7-0.7-1.8-0.7-2.5,0l-5.8,5.6V1.7
	c0-0.9-0.8-1.7-1.8-1.7S8.7,0.8,8.7,1.7v16.4L3,12.5C2.6,12.2,2.2,12,1.7,12c-0.4,0-0.9,0.2-1.2,0.5C-0.2,13.2-0.2,14.3,0.5,14.9z"
	/>
</svg>
