<svg xmlns="http://www.w3.org/2000/svg" xmlns:xlink="http://www.w3.org/1999/xlink" viewBox="0 0 50 50"><defs><style>.cls-1{fill:url(#Dégradé_sans_nom_2);}.cls-2{fill:#fff;}</style><linearGradient id="Dégradé_sans_nom_2" x1="-387.07" y1="317.86" x2="-386.07" y2="317.86" gradientTransform="matrix(50, 0, 0, -50, 19353.55, 15918.01)" gradientUnits="userSpaceOnUse"><stop offset="0" stop-color="#e2726b"/><stop offset="0.33" stop-color="#e06b7b"/><stop offset="0.5" stop-color="#de6782"/><stop offset="1" stop-color="#dd5d93"/></linearGradient></defs><g id="Calque_2" data-name="Calque 2"><g id="Calque_1-2" data-name="Calque 1"><g id="Logo"><path id="Rectangle_18" data-name="Rectangle 18" class="cls-1" d="M0,0H20A30,30,0,0,1,50,30V50H30A30,30,0,0,1,0,20V0Z"/><g id="Groupe_20" data-name="Groupe 20"><g id="Groupe_19" data-name="Groupe 19"><path id="Rectangle_19" data-name="Rectangle 19" class="cls-2" d="M25,9.75H35a10,10,0,0,1-10,10H15A10,10,0,0,1,25,9.75Z"/><path id="Rectangle_20" data-name="Rectangle 20" class="cls-2" d="M15,19.75H25a10,10,0,0,1,10,10H25a10,10,0,0,1-10-10Z"/></g><path id="Rectangle_21" data-name="Rectangle 21" class="cls-2" d="M25,30.25H35a10,10,0,0,1-10,10H15A10,10,0,0,1,25,30.25Z"/></g></g></g></g></svg>